<svg width="52" height="52" fill="none" xmlns="http://www.w3.org/2000/svg"><g filter="url(#a)"><rect width="52" height="52" rx="10" fill="#A8BFC9"/></g><path d="M35.524 16h-1.88a.476.476 0 0 0-.476.499l.159 3.284a9.81 9.81 0 0 0-7.492-3.466c-5.42 0-9.839 4.426-9.835 9.85.004 5.431 4.406 9.833 9.835 9.833a9.796 9.796 0 0 0 6.59-2.536.476.476 0 0 0 .019-.692l-1.348-1.349a.476.476 0 0 0-.65-.022 6.976 6.976 0 0 1-9.85-.63 6.987 6.987 0 0 1 .63-9.857 6.976 6.976 0 0 1 10.403 1.348l-4.027-.193a.476.476 0 0 0-.498.476v1.881c0 .263.213.476.476.476h7.944a.476.476 0 0 0 .476-.476v-7.95a.476.476 0 0 0-.476-.476Z" fill="#1F3641"/><defs><filter id="a" x="0" y="0" width="52" height="52" filterUnits="userSpaceOnUse" color-interpolation-filters="sRGB"><feFlood flood-opacity="0" result="BackgroundImageFix"/><feBlend in="SourceGraphic" in2="BackgroundImageFix" result="shape"/><feColorMatrix in="SourceAlpha" values="0 0 0 0 0 0 0 0 0 0 0 0 0 0 0 0 0 0 127 0" result="hardAlpha"/><feOffset dy="-4"/><feComposite in2="hardAlpha" operator="arithmetic" k2="-1" k3="1"/><feColorMatrix values="0 0 0 0 0.418727 0 0 0 0 0.538482 0 0 0 0 0.590549 0 0 0 1 0"/><feBlend in2="shape" result="effect1_innerShadow_0_2689"/></filter></defs></svg>